<?xml version="1.0" encoding="UTF-8" standalone="no"?>
<svg width="28" height="25" viewBox="0 0 28 25" xmlns="http://www.w3.org/2000/svg"><title>Quote marks</title><g fill="#AAA" fill-rule="evenodd" opacity=".2"><path d="M27.941 16.118c0-1.61-1.28-2.942-3.83-3.993-.7-.243-1.052-.838-1.052-1.816 0-.72.22-1.53.662-2.42l2.242-4.477c.434-.963.125-1.647-.926-2.052L23.853.875c-.882-.324-1.588-.088-2.11.72L18.059 7.53c-1.508 2.427-2.25 4.964-2.25 7.625v5.721c0 2.265 1.323 3.39 3.956 3.39h4.22c2.64 0 3.956-1.17 3.956-3.515v-4.632M12.132 16.118c0-1.61-1.28-2.942-3.83-3.993-.7-.243-1.052-.838-1.052-1.816 0-.72.213-1.53.662-2.42l2.242-4.477c.434-.963.125-1.647-.926-2.052L8.044.875c-.89-.324-1.588-.088-2.11.72L2.243 7.53C.743 9.956 0 12.493 0 15.154v5.721c0 2.265 1.316 3.39 3.956 3.39h4.22c2.633 0 3.956-1.17 3.956-3.515v-4.632"/></g></svg>