<?xml version="1.0" encoding="UTF-8" standalone="no"?>
<svg width="39" height="32" viewBox="0 0 39 32" xmlns="http://www.w3.org/2000/svg"><title>Twitter logo</title><path d="M38.25 3.711c-1.08 1.587-2.406 3.014-3.918 4.124V8.85c0 10.532-7.865 22.65-22.302 22.65-4.41 0-8.544-1.332-12.03-3.585.617.096 1.265.127 1.882.127 3.67 0 7.064-1.269 9.747-3.426-3.424-.063-6.323-2.347-7.341-5.52.493.096.987.16 1.48.16.71 0 1.42-.096 2.067-.286-3.578-.73-6.293-3.934-6.293-7.804v-.095a7.644 7.644 0 0 0 3.548.983 7.956 7.956 0 0 1-3.486-6.598c0-1.459.401-2.855 1.08-4.029C6.54 6.25 12.308 9.421 18.847 9.74a6.908 6.908 0 0 1-.216-1.808C18.631 3.553 22.148 0 26.467 0c2.251 0 4.318.952 5.737 2.506 1.79-.38 3.455-1.015 4.966-1.935-.586 1.84-1.82 3.426-3.424 4.41a15.638 15.638 0 0 0 4.504-1.27" fill="#0D5490" fill-rule="evenodd"/></svg>